<svg width="800" height="600" viewBox="0 0 800 600" fill="none" xmlns="http://www.w3.org/2000/svg">
  <rect width="800" height="600" fill="#07111C"/>
  <g opacity="0.3" stroke="#A7D1FF" stroke-width="0.5">
    <path d="M0 50H800"/>
    <path d="M0 100H800"/>
    <path d="M0 150H800"/>
    <path d="M0 200H800"/>
    <path d="M0 250H800"/>
    <path d="M0 300H800"/>
    <path d="M0 350H800"/>
    <path d="M0 400H800"/>
    <path d="M0 450H800"/>
    <path d="M0 500H800"/>
    <path d="M0 550H800"/>
    <path d="M50 0V600"/>
    <path d="M100 0V600"/>
    <path d="M150 0V600"/>
    <path d="M200 0V600"/>
    <path d="M250 0V600"/>
    <path d="M300 0V600"/>
    <path d="M350 0V600"/>
    <path d="M400 0V600"/>
    <path d="M450 0V600"/>
    <path d="M500 0V600"/>
    <path d="M550 0V600"/>
    <path d="M600 0V600"/>
    <path d="M650 0V600"/>
    <path d="M700 0V600"/>
    <path d="M750 0V600"/>
  </g>
  <g transform="translate(400 300)">
    <circle r="180" stroke="#A7D1FF" stroke-width="1.5" opacity="0.6"/>
    <circle r="120" stroke="#A7D1FF" stroke-width="1.2" opacity="0.45" stroke-dasharray="12 8"/>
    <circle r="60" stroke="#A7D1FF" stroke-width="1" opacity="0.35"/>
    <line x1="0" y1="-200" x2="0" y2="200" stroke="#A7D1FF" stroke-width="1" opacity="0.35"/>
    <line x1="-200" y1="0" x2="200" y2="0" stroke="#A7D1FF" stroke-width="1" opacity="0.35"/>
    <line x1="-200" y1="-200" x2="200" y2="200" stroke="#A7D1FF" stroke-width="0.8" opacity="0.25" stroke-dasharray="8 10"/>
    <line x1="-200" y1="200" x2="200" y2="-200" stroke="#A7D1FF" stroke-width="0.8" opacity="0.25" stroke-dasharray="8 10"/>
    <circle r="8" fill="#07111C" stroke="#FF4D4F" stroke-width="2"/>
    <circle r="4" fill="#FF4D4F"/>
  </g>
</svg>


